<svg width="80" height="138" viewBox="0 0 80 138" fill="none" xmlns="http://www.w3.org/2000/svg">
<g filter="url(#filter0_d)">
<ellipse cx="39.7719" cy="133.872" rx="37.4345" ry="1.07615" fill="#C4C4C4" fill-opacity="0.01"/>
</g>
<g filter="url(#filter1_d)">
<path d="M17.0542 134.333H62.4903C63.8366 134.333 65.1204 134.066 66.2916 133.581C66.2916 133.581 50.5337 125.647 39.8491 125.724C29.1645 125.801 13.2529 133.581 13.2529 133.581C14.4241 134.066 15.708 134.333 17.0542 134.333Z" fill="#C4C4C4" fill-opacity="0.01"/>
</g>
<g filter="url(#filter2_d)">
<path d="M7.10303 12.2261C7.10303 6.73047 11.5581 2.27539 17.0537 2.27539H62.4897C67.9853 2.27539 72.4404 6.73046 72.4404 12.2261V124.383C72.4404 129.879 67.9853 134.334 62.4897 134.334H17.0537C11.5581 134.334 7.10303 129.879 7.10303 124.383V12.2261Z" fill="#F9FAFA"/>
</g>
<g filter="url(#filter3_i)">
<path d="M7.10303 12.2261C7.10303 6.73047 11.5581 2.27539 17.0537 2.27539H62.4897C67.9853 2.27539 72.4404 6.73046 72.4404 12.2261V124.383C72.4404 129.879 67.9853 134.334 62.4897 134.334H17.0537C11.5581 134.334 7.10303 129.879 7.10303 124.383V12.2261Z" fill="#F9FAFA"/>
</g>
<path d="M10.876 68.31C10.8755 68.3065 10.8752 68.3029 10.8752 68.2993C10.8752 51.0741 10.8755 33.8489 10.876 16.6239C10.876 16.1774 10.8743 15.7307 10.8727 15.2837C10.8681 14.0396 10.8636 12.794 10.8943 11.5498L10.8943 11.5498C10.9606 8.86949 12.9774 6.49521 15.5996 5.93797C16.0696 5.83714 16.5489 5.78605 17.0296 5.78555L17.0297 5.78555L10.876 68.31ZM10.876 68.31C10.8812 68.3474 10.9133 68.3762 10.9521 68.3762H10.9528M10.876 68.31V68.2993L10.9528 68.3762M68.6698 11.6921C68.6713 11.1856 68.5996 10.6815 68.4571 10.1954L68.4571 10.1953C67.6965 7.60745 65.4842 5.86302 62.7811 5.80017L62.7794 5.87702L62.7811 5.80017C61.2739 5.76535 59.7654 5.77369 58.2583 5.78202C57.7421 5.78487 57.2261 5.78772 56.7104 5.78884C56.4475 5.78942 56.2286 5.86832 56.0704 6.01973C55.9126 6.17088 55.8231 6.38668 55.8042 6.64627C55.7956 6.76339 55.792 6.88049 55.789 6.99613C55.7886 7.0124 55.7882 7.02863 55.7878 7.04483C55.7853 7.14429 55.7829 7.24253 55.7777 7.34059L55.7777 7.34094C55.7077 8.8061 54.6505 10.0372 53.2103 10.3304L53.2099 10.3305C52.9135 10.3924 52.6149 10.3924 52.3063 10.3923L52.2796 10.3923C46.1377 10.3927 39.9958 10.3927 33.8538 10.3923C33.1829 10.3922 32.5121 10.3932 31.8414 10.3941C30.1845 10.3964 28.5281 10.3987 26.8718 10.3854C25.3763 10.3737 24.1248 9.33484 23.8025 7.88021L68.5929 11.6919M68.6698 11.6921L68.5929 11.6919M68.6698 11.6921C68.6698 11.6921 68.6698 11.692 68.6698 11.6919L68.5929 11.6919M68.6698 11.6921C68.6673 15.7555 68.6675 19.8185 68.6701 23.8812C68.6701 57.3579 68.6714 90.8356 68.6738 124.314C68.6738 125.159 68.631 126.003 68.3063 126.814L68.2349 126.785C68.5538 125.989 68.5969 125.157 68.5969 124.314C68.5945 90.8356 68.5933 57.3579 68.5933 23.8812C68.5906 19.8184 68.5905 15.7554 68.5929 11.6919M10.9528 68.3762V68.2993H10.9521L10.9528 68.3762ZM23.4818 6.07639C23.2654 5.83236 22.9842 5.78335 22.6961 5.78409L23.7019 6.69752L23.6251 6.69896L23.7019 6.69742L23.7019 6.69745C23.6977 6.47072 23.6419 6.25723 23.4819 6.07644L23.4818 6.07639ZM63.5553 130.686L63.5414 130.61L63.5551 130.686C63.5552 130.686 63.5552 130.686 63.5553 130.686ZM16.7473 130.749C16.7474 130.749 16.7474 130.749 16.7475 130.749L16.7499 130.672L16.7473 130.749Z" stroke="#E1E1E1" stroke-width="0.153735" stroke-linejoin="round"/>
<path opacity="0.4" fill-rule="evenodd" clip-rule="evenodd" d="M35.2139 7.45752C35.2139 7.20645 35.4207 7.00273 35.6758 7.00249L41.3665 6.99707C41.6217 6.99683 41.8285 7.20015 41.8285 7.45122L41.8285 7.59934C41.8285 7.8504 41.6217 8.05412 41.3666 8.05436L35.6759 8.05978C35.4208 8.06003 35.2139 7.8567 35.2139 7.60564L35.2139 7.45752Z" fill="#C8C8C8"/>
<path opacity="0.546196" fill-rule="evenodd" clip-rule="evenodd" d="M43.3667 7.52871C43.3667 7.23608 43.6078 6.99782 43.9052 6.99753C44.2026 6.99725 44.4437 7.23505 44.4437 7.52768C44.4437 7.82032 44.2026 8.05858 43.9052 8.05886C43.6078 8.05915 43.3668 7.82135 43.3667 7.52871Z" fill="#C8C8C8"/>
<defs>
<filter id="filter0_d" x="0.492582" y="130.951" width="78.5586" height="5.84193" filterUnits="userSpaceOnUse" color-interpolation-filters="sRGB">
<feFlood flood-opacity="0" result="BackgroundImageFix"/>
<feColorMatrix in="SourceAlpha" type="matrix" values="0 0 0 0 0 0 0 0 0 0 0 0 0 0 0 0 0 0 127 0"/>
<feOffset/>
<feGaussianBlur stdDeviation="0.92241"/>
<feColorMatrix type="matrix" values="0 0 0 0 0 0 0 0 0 0 0 0 0 0 0 0 0 0 0.08 0"/>
<feBlend mode="normal" in2="BackgroundImageFix" result="effect1_dropShadow"/>
<feBlend mode="normal" in="SourceGraphic" in2="effect1_dropShadow" result="shape"/>
</filter>
<filter id="filter1_d" x="11.8693" y="124.34" width="55.8059" height="11.377" filterUnits="userSpaceOnUse" color-interpolation-filters="sRGB">
<feFlood flood-opacity="0" result="BackgroundImageFix"/>
<feColorMatrix in="SourceAlpha" type="matrix" values="0 0 0 0 0 0 0 0 0 0 0 0 0 0 0 0 0 0 127 0"/>
<feOffset/>
<feGaussianBlur stdDeviation="0.691808"/>
<feColorMatrix type="matrix" values="0 0 0 0 0 0 0 0 0 0 0 0 0 0 0 0 0 0 0.33 0"/>
<feBlend mode="normal" in2="BackgroundImageFix" result="effect1_dropShadow"/>
<feBlend mode="normal" in="SourceGraphic" in2="effect1_dropShadow" result="shape"/>
</filter>
<filter id="filter2_d" x="4.4056" y="0.428123" width="70.7322" height="137.453" filterUnits="userSpaceOnUse" color-interpolation-filters="sRGB">
<feFlood flood-opacity="0" result="BackgroundImageFix"/>
<feColorMatrix in="SourceAlpha" type="matrix" values="0 0 0 0 0 0 0 0 0 0 0 0 0 0 0 0 0 0 127 0"/>
<feOffset dy="0.850155"/>
<feGaussianBlur stdDeviation="1.34871"/>
<feColorMatrix type="matrix" values="0 0 0 0 0 0 0 0 0 0 0 0 0 0 0 0 0 0 0.03 0"/>
<feBlend mode="normal" in2="BackgroundImageFix" result="effect1_dropShadow"/>
<feBlend mode="normal" in="SourceGraphic" in2="effect1_dropShadow" result="shape"/>
</filter>
<filter id="filter3_i" x="7.10303" y="1.46616" width="65.3374" height="132.868" filterUnits="userSpaceOnUse" color-interpolation-filters="sRGB">
<feFlood flood-opacity="0" result="BackgroundImageFix"/>
<feBlend mode="normal" in="SourceGraphic" in2="BackgroundImageFix" result="shape"/>
<feColorMatrix in="SourceAlpha" type="matrix" values="0 0 0 0 0 0 0 0 0 0 0 0 0 0 0 0 0 0 127 0" result="hardAlpha"/>
<feOffset dy="-0.809227"/>
<feGaussianBlur stdDeviation="1.35984"/>
<feComposite in2="hardAlpha" operator="arithmetic" k2="-1" k3="1"/>
<feColorMatrix type="matrix" values="0 0 0 0 0 0 0 0 0 0 0 0 0 0 0 0 0 0 0.12 0"/>
<feBlend mode="normal" in2="shape" result="effect1_innerShadow"/>
</filter>
</defs>
</svg>
